<svg viewBox="0 0 2560 1440" width="2560" height="1440" xmlns="http://www.w3.org/2000/svg"><rect width="2560" height="1440" fill="transparent"></rect><path d="M0,1015.9C160,1016,160,907,320,907.2C480,907,480,1440,640,1440C800,1440,800,1059,960,1059.2C1120,1059,1120,1184,1280,1184.3C1440,1184,1440,719,1600,719.4C1760,719,1760,911,1920,910.9C2080,911,2080,666,2240,665.6C2400,666,2400,1008,2560,1008.2L2560,0C2400,0,2400,0,2240,0C2080,0,2080,0,1920,0C1760,0,1760,0,1600,0C1440,0,1440,0,1280,0C1120,0,1120,0,960,0C800,0,800,0,640,0C480,0,480,0,320,0C160,0,160,0,0,0Z" fill="#0627AF" stroke="#0627AF" stroke-width="0"></path></svg>